<?xml version="1.0" standalone="no"?>
<!DOCTYPE svg PUBLIC "-//W3C//DTD SVG 20010904//EN"
 "http://www.w3.org/TR/2001/REC-SVG-20010904/DTD/svg10.dtd">
<svg version="1.0" xmlns="http://www.w3.org/2000/svg"
 width="512.000000pt" height="512.000000pt" viewBox="0 0 512.000000 512.000000"
 preserveAspectRatio="xMidYMid meet">
<metadata>
Created by potrace 1.11, written by Peter Selinger 2001-2013
</metadata>
<g transform="translate(0.000000,512.000000) scale(0.100000,-0.100000)"
fill="#000000" stroke="none">
<path d="M177 5106 c-78 -28 -142 -98 -167 -182 -8 -29 -10 -551 -8 -1959 l3
-1920 22 -40 c25 -47 74 -95 123 -121 33 -18 78 -19 863 -22 l827 -2 1 -23 c1
-28 1 -377 0 -394 -1 -10 -41 -13 -164 -13 -89 0 -177 -4 -196 -10 -55 -16
-106 -57 -131 -106 -19 -40 -22 -61 -23 -161 0 -92 4 -118 16 -131 15 -14 129
-16 1218 -16 1172 0 1201 0 1215 19 17 23 19 200 3 258 -13 49 -63 105 -114
128 -34 16 -67 19 -217 19 l-177 0 2 213 2 212 830 5 830 5 45 27 c59 34 84
62 112 123 l22 50 1 1928 c2 1871 1 1928 -17 1970 -26 57 -73 105 -133 133
l-50 24 -2350 -1 c-1937 0 -2357 -2 -2388 -13z"/>
</g>
</svg>
